<svg width="145" height="87" viewBox="0 0 145 87" fill="none" xmlns="http://www.w3.org/2000/svg">
<path d="M5.212 31V14.44H8.992V17.68C9.52 17.056 10.36 16.468 11.512 15.916C12.688 15.364 14.152 14.908 15.904 14.548C17.68 14.188 19.696 14.02 21.952 14.044C24.112 14.044 26.02 14.32 27.676 14.872C29.356 15.424 30.664 16.264 31.6 17.392C32.536 18.496 33.004 19.9 33.004 21.604V31H29.224V21.712C29.224 20.632 28.912 19.768 28.288 19.12C27.688 18.448 26.74 17.956 25.444 17.644C24.148 17.332 22.504 17.176 20.512 17.176C18.952 17.176 17.476 17.284 16.084 17.5C14.692 17.692 13.456 18.004 12.376 18.436C11.32 18.844 10.492 19.348 9.892 19.948C9.292 20.548 8.992 21.244 8.992 22.036V31H5.212Z" fill="#FF3E19"/>
<path d="M35.863 74.29C33.9297 74.29 32.1413 74.145 30.498 73.855C28.874 73.5457 27.4627 73.101 26.264 72.521C25.0653 71.941 24.1373 71.2257 23.48 70.375C22.8227 69.505 22.494 68.519 22.494 67.417C22.494 66.2957 22.8227 65.3 23.48 64.43C24.1373 63.5407 25.0363 62.7963 26.177 62.197C27.337 61.5977 28.6807 61.1433 30.208 60.834C31.7353 60.5053 33.369 60.341 35.109 60.341C36.6943 60.341 38.1637 60.486 39.517 60.776C40.8703 61.066 42.0593 61.501 43.084 62.081C44.128 62.6417 44.9303 63.3377 45.491 64.169C46.0517 64.981 46.332 65.9283 46.332 67.011C46.332 67.1657 46.3223 67.33 46.303 67.504C46.2837 67.6587 46.2547 67.8133 46.216 67.968H25.394C25.4907 68.722 25.858 69.36 26.496 69.882C27.134 70.3847 27.9557 70.8003 28.961 71.129C29.9663 71.4383 31.078 71.6607 32.296 71.796C33.514 71.9313 34.7417 71.999 35.979 71.999C36.8877 71.999 37.7867 71.9603 38.676 71.883C39.5653 71.7863 40.3967 71.651 41.17 71.477C41.9433 71.303 42.6103 71.0613 43.171 70.752L45.491 72.231C44.7563 72.6757 43.8863 73.0527 42.881 73.362C41.895 73.6713 40.8027 73.9033 39.604 74.058C38.4247 74.2127 37.1777 74.29 35.863 74.29ZM25.539 65.822H43.258C43.2387 65.2613 42.9777 64.778 42.475 64.372C41.9917 63.966 41.344 63.6277 40.532 63.357C39.7393 63.0863 38.8403 62.893 37.835 62.777C36.849 62.6417 35.8437 62.574 34.819 62.574C33.833 62.574 32.8277 62.6223 31.803 62.719C30.7977 62.8157 29.8503 62.9993 28.961 63.27C28.091 63.5213 27.3467 63.8597 26.728 64.285C26.1287 64.691 25.7323 65.2033 25.539 65.822Z" fill="#FF3E19"/>
<path d="M139.763 57.7175L141.071 42.827C141.141 42.207 141.265 41.6731 141.443 41.2252C141.624 40.7515 141.839 40.4006 142.089 40.1723C142.357 39.9203 142.641 39.8148 142.941 39.8557C143.228 39.8948 143.459 40.0705 143.635 40.3831C143.814 40.6698 143.924 41.0914 143.965 41.6478C144.024 42.1804 144 42.8329 143.895 43.6055L141.158 57.9078L139.763 57.7175ZM139.366 66.0831C138.922 66.0226 138.58 65.7005 138.338 65.1168C138.101 64.5074 138.036 63.8035 138.145 63.0052C138.254 62.207 138.503 61.5589 138.891 61.0611C139.284 60.5375 139.701 60.3059 140.145 60.3664C140.574 60.4249 140.908 60.7589 141.145 61.3684C141.386 61.952 141.453 62.643 141.344 63.4413C141.235 64.2396 140.984 64.9005 140.592 65.4241C140.204 65.922 139.795 66.1416 139.366 66.0831Z" fill="#FF3E19"/>
<path d="M58.1507 79.29C57.184 79.29 56.2947 79.2127 55.4827 79.058C54.6707 78.9227 53.9167 78.7003 53.2207 78.391C52.5247 78.0623 51.8673 77.6563 51.2487 77.173L52.6407 74.998L52.8147 74.766L52.9887 74.882C53.0273 75.0367 53.0757 75.1913 53.1337 75.346C53.211 75.4813 53.3657 75.6457 53.5977 75.839C54.139 76.2643 54.7673 76.6027 55.4827 76.854C56.2173 77.086 57.126 77.202 58.2087 77.202C59.04 77.202 59.7553 77.1343 60.3547 76.999C60.954 76.8443 61.418 76.6317 61.7467 76.361C62.0753 76.071 62.2397 75.7423 62.2397 75.375C62.2397 75.1043 62.1623 74.8723 62.0077 74.679C61.853 74.4663 61.6113 74.2827 61.2827 74.128C60.9733 73.954 60.548 73.78 60.0067 73.606C59.4847 73.432 58.837 73.258 58.0637 73.084C56.807 72.794 55.7243 72.4653 54.8157 72.098C53.9263 71.7307 53.2497 71.286 52.7857 70.764C52.3217 70.242 52.0897 69.6233 52.0897 68.908C52.0897 68.212 52.3217 67.603 52.7857 67.081C53.2497 66.5397 53.9263 66.1143 54.8157 65.805C55.705 65.4957 56.7973 65.341 58.0927 65.341C58.8467 65.341 59.5233 65.3893 60.1227 65.486C60.7413 65.5633 61.302 65.6987 61.8047 65.892C62.3073 66.066 62.7713 66.2883 63.1967 66.559C63.6413 66.8103 64.057 67.11 64.4437 67.458L62.9937 69.169L62.7907 69.372L62.6167 69.227C62.6167 69.0723 62.5683 68.937 62.4717 68.821C62.3943 68.6857 62.2397 68.5213 62.0077 68.328C61.505 67.9993 60.9153 67.7577 60.2387 67.603C59.562 67.429 58.866 67.342 58.1507 67.342C57.126 67.342 56.2753 67.4677 55.5987 67.719C54.9413 67.951 54.6127 68.3087 54.6127 68.792C54.6127 69.1013 54.7577 69.3817 55.0477 69.633C55.3377 69.8843 55.821 70.126 56.4977 70.358C57.1743 70.59 58.083 70.8317 59.2237 71.083C60.5577 71.3923 61.621 71.7307 62.4137 72.098C63.2257 72.4653 63.8153 72.9003 64.1827 73.403C64.55 73.8863 64.7337 74.4663 64.7337 75.143C64.7337 75.9163 64.492 76.622 64.0087 77.26C63.5253 77.8787 62.7907 78.3717 61.8047 78.739C60.8187 79.1063 59.6007 79.29 58.1507 79.29Z" fill="#FF3E19"/>
<path d="M78.1507 74.29C77.184 74.29 76.2947 74.2127 75.4827 74.058C74.6707 73.9227 73.9167 73.7003 73.2207 73.391C72.5247 73.0623 71.8673 72.6563 71.2487 72.173L72.6407 69.998L72.8147 69.766L72.9887 69.882C73.0273 70.0367 73.0757 70.1913 73.1337 70.346C73.211 70.4813 73.3657 70.6457 73.5977 70.839C74.139 71.2643 74.7673 71.6027 75.4827 71.854C76.2173 72.086 77.126 72.202 78.2087 72.202C79.04 72.202 79.7553 72.1343 80.3547 71.999C80.954 71.8443 81.418 71.6317 81.7467 71.361C82.0753 71.071 82.2397 70.7423 82.2397 70.375C82.2397 70.1043 82.1623 69.8723 82.0077 69.679C81.853 69.4663 81.6113 69.2827 81.2827 69.128C80.9733 68.954 80.548 68.78 80.0067 68.606C79.4847 68.432 78.837 68.258 78.0637 68.084C76.807 67.794 75.7243 67.4653 74.8157 67.098C73.9263 66.7307 73.2497 66.286 72.7857 65.764C72.3217 65.242 72.0897 64.6233 72.0897 63.908C72.0897 63.212 72.3217 62.603 72.7857 62.081C73.2497 61.5397 73.9263 61.1143 74.8157 60.805C75.705 60.4957 76.7973 60.341 78.0927 60.341C78.8467 60.341 79.5233 60.3893 80.1227 60.486C80.7413 60.5633 81.302 60.6987 81.8047 60.892C82.3073 61.066 82.7713 61.2883 83.1967 61.559C83.6413 61.8103 84.057 62.11 84.4437 62.458L82.9937 64.169L82.7907 64.372L82.6167 64.227C82.6167 64.0723 82.5683 63.937 82.4717 63.821C82.3943 63.6857 82.2397 63.5213 82.0077 63.328C81.505 62.9993 80.9153 62.7577 80.2387 62.603C79.562 62.429 78.866 62.342 78.1507 62.342C77.126 62.342 76.2753 62.4677 75.5987 62.719C74.9413 62.951 74.6127 63.3087 74.6127 63.792C74.6127 64.1013 74.7577 64.3817 75.0477 64.633C75.3377 64.8843 75.821 65.126 76.4977 65.358C77.1743 65.59 78.083 65.8317 79.2237 66.083C80.5577 66.3923 81.621 66.7307 82.4137 67.098C83.2257 67.4653 83.8153 67.9003 84.1827 68.403C84.55 68.8863 84.7337 69.4663 84.7337 70.143C84.7337 70.9163 84.492 71.622 84.0087 72.26C83.5253 72.8787 82.7907 73.3717 81.8047 73.739C80.8187 74.1063 79.6007 74.29 78.1507 74.29Z" fill="#FF3E19"/>
<path d="M109.803 84.046C108.662 84.046 107.637 83.9687 106.729 83.814C105.839 83.6593 105.066 83.437 104.409 83.147C103.771 82.857 103.278 82.4993 102.93 82.074C102.601 81.6487 102.437 81.1557 102.437 80.595C102.437 80.0537 102.572 79.5703 102.843 79.145C103.113 78.739 103.471 78.4007 103.916 78.13C104.38 77.84 104.892 77.6177 105.453 77.463L106.787 78.014C106.381 78.2267 106.013 78.4297 105.685 78.623C105.375 78.8163 105.124 79.0387 104.931 79.29C104.757 79.5607 104.67 79.8797 104.67 80.247C104.67 80.537 104.795 80.798 105.047 81.03C105.317 81.262 105.675 81.4553 106.12 81.61C106.584 81.7647 107.135 81.8807 107.773 81.958C108.411 82.0547 109.116 82.103 109.89 82.103C110.914 82.103 111.775 82.0257 112.471 81.871C113.186 81.7163 113.727 81.494 114.095 81.204C114.462 80.914 114.646 80.5757 114.646 80.189C114.646 79.8023 114.53 79.493 114.298 79.261C114.066 79.029 113.64 78.855 113.022 78.739C112.422 78.623 111.572 78.565 110.47 78.565C109.658 78.565 108.904 78.536 108.208 78.478C107.531 78.42 106.912 78.3233 106.352 78.188C105.791 78.0527 105.308 77.8787 104.902 77.666C104.515 77.4533 104.215 77.202 104.003 76.912C103.79 76.6027 103.684 76.245 103.684 75.839C103.684 75.2977 103.867 74.795 104.235 74.331C104.621 73.867 105.124 73.432 105.743 73.026L107.048 73.809C106.816 74.0023 106.603 74.1763 106.41 74.331C106.236 74.4857 106.091 74.6307 105.975 74.766C105.878 74.9013 105.83 75.056 105.83 75.23C105.83 75.52 106.004 75.7617 106.352 75.955C106.7 76.129 107.26 76.2547 108.034 76.332C108.826 76.4093 109.851 76.448 111.108 76.448C112.287 76.448 113.254 76.535 114.008 76.709C114.762 76.8637 115.351 77.1053 115.777 77.434C116.202 77.7433 116.502 78.1107 116.676 78.536C116.869 78.942 116.966 79.3867 116.966 79.87C116.966 80.4113 116.83 80.9237 116.56 81.407C116.289 81.9097 115.873 82.3543 115.313 82.741C114.752 83.147 114.017 83.466 113.109 83.698C112.2 83.93 111.098 84.046 109.803 84.046ZM109.165 74.476C108.005 74.476 106.99 74.273 106.12 73.867C105.269 73.4417 104.602 72.881 104.119 72.185C103.655 71.4697 103.423 70.6867 103.423 69.836C103.423 68.966 103.655 68.1927 104.119 67.516C104.602 66.82 105.269 66.269 106.12 65.863C106.99 65.4377 108.005 65.225 109.165 65.225C110.325 65.225 111.33 65.428 112.181 65.834C113.051 66.24 113.718 66.791 114.182 67.487C114.665 68.183 114.907 68.966 114.907 69.836C114.907 70.6867 114.665 71.4697 114.182 72.185C113.718 72.881 113.051 73.4417 112.181 73.867C111.33 74.273 110.325 74.476 109.165 74.476ZM109.165 72.475C109.861 72.475 110.47 72.359 110.992 72.127C111.533 71.895 111.958 71.576 112.268 71.17C112.577 70.764 112.732 70.3193 112.732 69.836C112.732 69.3333 112.577 68.8887 112.268 68.502C111.958 68.1153 111.533 67.806 110.992 67.574C110.47 67.342 109.861 67.226 109.165 67.226C108.507 67.226 107.908 67.342 107.367 67.574C106.825 67.806 106.39 68.1153 106.062 68.502C105.752 68.8887 105.598 69.3333 105.598 69.836C105.598 70.3193 105.752 70.764 106.062 71.17C106.371 71.576 106.796 71.895 107.338 72.127C107.879 72.359 108.488 72.475 109.165 72.475ZM113.95 68.009L112.848 66.82C113.524 66.298 114.23 65.9113 114.965 65.66C115.719 65.4087 116.598 65.312 117.604 65.37L117.923 67.255C117.188 67.197 116.482 67.2163 115.806 67.313C115.129 67.4097 114.51 67.6417 113.95 68.009Z" fill="#FF3E19"/>
<path d="M128.789 82.29C127.629 82.29 126.556 82.145 125.57 81.855C124.603 81.5457 123.772 81.101 123.076 80.521C122.38 79.941 121.838 79.216 121.452 78.346C121.065 77.476 120.872 76.49 120.872 75.388C120.872 74.2667 121.065 73.271 121.452 72.401C121.838 71.531 122.37 70.7963 123.047 70.197C123.723 69.5977 124.516 69.1433 125.425 68.834C126.333 68.5053 127.3 68.341 128.325 68.341C129.253 68.341 130.123 68.4763 130.935 68.747C131.747 69.0177 132.452 69.4237 133.052 69.965C133.651 70.487 134.125 71.154 134.473 71.966C134.821 72.7587 134.995 73.6963 134.995 74.779C134.995 74.953 134.985 75.1367 134.966 75.33C134.966 75.5233 134.956 75.6973 134.937 75.852H123.366C123.404 76.6253 123.578 77.2923 123.888 77.853C124.216 78.4137 124.632 78.8777 125.135 79.245C125.657 79.593 126.237 79.854 126.875 80.028C127.513 80.1827 128.18 80.26 128.876 80.26C129.417 80.26 129.929 80.2117 130.413 80.115C130.915 80.0183 131.379 79.8733 131.805 79.68C132.249 79.4673 132.646 79.1967 132.994 78.868L134.531 80.231C134.067 80.6757 133.535 81.0623 132.936 81.391C132.356 81.7003 131.718 81.9227 131.022 82.058C130.326 82.2127 129.581 82.29 128.789 82.29ZM123.453 73.909H132.414C132.394 73.3483 132.278 72.8457 132.066 72.401C131.853 71.9563 131.553 71.5793 131.167 71.27C130.78 70.9607 130.326 70.7287 129.804 70.574C129.301 70.4 128.75 70.313 128.151 70.313C127.609 70.313 127.078 70.3807 126.556 70.516C126.053 70.6513 125.579 70.8737 125.135 71.183C124.709 71.473 124.342 71.8403 124.033 72.285C123.743 72.7297 123.549 73.271 123.453 73.909Z" fill="#FF3E19"/>
<path d="M93.0456 79C91.7593 79 90.7635 78.5392 90.0581 77.6175C89.3527 76.6694 89 75.4581 89 73.9834C89 72.9827 89.1452 72.0873 89.4357 71.2973C89.7261 70.5073 90.1342 69.8358 90.6598 69.2827C91.1853 68.7034 91.8077 68.2689 92.527 67.9792C93.26 67.6632 94.0553 67.5052 94.9129 67.5052C95.1618 67.5052 95.4315 67.5184 95.722 67.5447C96.0124 67.5447 96.3167 67.571 96.6349 67.6237C96.953 67.65 97.2711 67.7027 97.5892 67.7817L97.6515 70.3493C97.3748 70.2703 97.0775 70.2176 96.7593 70.1913C96.455 70.1649 96.1508 70.1386 95.8465 70.1123C95.5422 70.0859 95.2656 70.0728 95.0166 70.0728C94.3942 70.0728 93.8271 70.1518 93.3154 70.3098C92.8036 70.4414 92.361 70.6653 91.9876 70.9813C91.6279 71.271 91.3513 71.6528 91.1577 72.1268C90.964 72.5745 90.8672 73.1012 90.8672 73.7069C90.8672 74.1809 90.9295 74.5891 91.0539 74.9314C91.1923 75.2737 91.3721 75.5502 91.5934 75.7609C91.8147 75.9453 92.0705 76.0901 92.361 76.1954C92.6653 76.2744 92.9834 76.3139 93.3154 76.3139C93.9239 76.3139 94.4703 76.1691 94.9544 75.8794C95.4523 75.5897 95.8741 75.1552 96.2199 74.5759C96.5795 73.9702 96.8492 73.2328 97.029 72.3638C97.2089 71.4685 97.2988 70.4414 97.2988 69.2827C97.2849 67.571 97.1397 66.2543 96.8631 65.3326C96.6003 64.3846 96.213 63.7263 95.7012 63.3576C95.2033 62.9626 94.5809 62.7651 93.834 62.7651C93.2669 62.7651 92.7206 62.9231 92.195 63.2391C91.6833 63.5288 91.2061 64.0159 90.7635 64.7006L89.7261 62.6071C90.2932 61.738 90.9364 61.0929 91.6556 60.6715C92.3748 60.2238 93.1355 60 93.9378 60C94.6846 60 95.3624 60.1448 95.971 60.4345C96.5934 60.6979 97.1259 61.1587 97.5685 61.817C98.0249 62.4754 98.3776 63.3708 98.6266 64.5031C98.8755 65.6091 99 67.0049 99 68.6902V78.5655H97.0498V76.0374C96.8285 76.6431 96.5588 77.1435 96.2407 77.5385C95.9364 77.9071 95.5975 78.1968 95.2241 78.4075C94.8645 78.6182 94.4979 78.763 94.1245 78.842C93.751 78.9473 93.3914 79 93.0456 79Z" fill="#FF3E19"/>
<path d="M0 77V48.6813H2.38532V53.0522C2.62997 52.1903 2.97401 51.39 3.41743 50.6513C3.86086 49.8715 4.36544 49.2354 4.93119 48.7429C5.51223 48.2504 6.12385 48.0041 6.76606 48.0041C7.37768 48.0041 7.95872 48.2914 8.50917 48.866C9.05963 49.4406 9.51835 50.1383 9.88532 50.9591C10.2676 51.7799 10.5122 52.6008 10.6193 53.4216C10.8792 52.6008 11.2462 51.7799 11.7202 50.9591C12.2095 50.0972 12.7676 49.379 13.3945 48.8044C14.0214 48.2298 14.6789 47.9631 15.367 48.0041C16.4985 48.0451 17.3777 48.435 18.0046 49.1738C18.6315 49.9125 19.0902 50.7949 19.3807 51.821C19.6713 52.847 19.8471 53.8936 19.9083 54.9607C19.9694 55.9867 20 56.8691 20 57.6078V77H17.5688V59.1469C17.5688 57.5052 17.4618 56.2124 17.2477 55.2685C17.0336 54.3245 16.7202 53.6473 16.3073 53.2369C15.9098 52.7855 15.4281 52.5597 14.8624 52.5597C14.2813 52.5597 13.7156 52.9086 13.1651 53.6063C12.6147 54.2629 12.156 55.1864 11.789 56.3766C11.422 57.5668 11.2385 58.9417 11.2385 60.5013V77H8.76147V59.5163C8.76147 57.3821 8.50918 55.7199 8.00459 54.5297C7.5 53.2985 6.82722 52.6828 5.98624 52.6828C5.64985 52.6828 5.27523 52.8881 4.86239 53.2985C4.46483 53.7089 4.07492 54.2629 3.69266 54.9607C3.32569 55.6173 3.01988 56.4176 2.77523 57.3616C2.54587 58.2645 2.43119 59.2495 2.43119 60.3166V77H0Z" fill="#FF3E19"/>
<path d="M87.2805 42L72 25H79.1263L91.1178 38.2017L101.876 26.5857H107.084L119.349 38.5705C120.948 36.6038 122.296 34.9566 123.392 33.6291C124.488 32.2769 125.356 31.1461 125.996 30.2364C126.635 29.3268 127.115 28.5401 127.435 27.8764C127.8 27.2126 128.074 26.5734 128.257 25.9588L128.531 25H136C134.949 26.893 133.67 28.7983 132.163 30.7158C130.701 32.6088 129.125 34.5018 127.435 36.3948C125.744 38.2632 124.1 40.1316 122.501 42H115.786L104.137 30.7896L93.9957 42H87.2805Z" fill="#FF3E19"/>
<path d="M55.3382 45C53.5539 45 51.9035 44.6674 50.3869 44.0021C48.8881 43.2924 47.5856 42.2723 46.4793 40.9418C45.3731 39.6112 44.5166 37.9702 43.91 36.0187C43.3033 34.0229 43 31.7609 43 29.2328C43 26.6604 43.3033 24.3763 43.91 22.3805C44.5166 20.3403 45.3463 18.6327 46.399 17.2578C47.4696 15.8829 48.7097 14.8406 50.1192 14.131C51.5288 13.377 53.0365 13 54.6423 13C56.1054 13 57.4615 13.3326 58.7105 13.9979C59.9594 14.6632 61.0568 15.6611 62.0024 16.9917C62.9659 18.2779 63.7064 19.8746 64.2238 21.7817C64.7413 23.6445 65 25.8177 65 28.3015C65 28.6563 64.9911 29.0333 64.9732 29.4324C64.9554 29.7872 64.9286 30.1421 64.8929 30.4969H45.6764C45.7656 32.2266 46.1046 33.6902 46.6934 34.8877C47.2822 36.0409 48.0406 36.9945 48.9684 37.7484C49.8962 38.4581 50.9221 38.9681 52.0462 39.2786C53.1703 39.589 54.3033 39.7443 55.4453 39.7443C56.2839 39.7443 57.1135 39.6556 57.9343 39.4782C58.7551 39.2564 59.5223 38.9459 60.236 38.5468C60.9497 38.1476 61.5653 37.5932 62.0827 36.8836L64.2238 40.2765C63.5458 41.2966 62.7429 42.1615 61.8151 42.8711C60.9051 43.5807 59.897 44.113 58.7908 44.4678C57.7024 44.8226 56.5515 45 55.3382 45ZM45.8102 25.5738H62.163C62.1452 24.2876 61.9043 23.1788 61.4404 22.2474C60.9943 21.316 60.3966 20.5398 59.6472 19.9189C58.9157 19.298 58.086 18.8545 57.1581 18.5884C56.2482 18.2779 55.3204 18.1227 54.3747 18.1227C53.4647 18.1227 52.5369 18.2335 51.5912 18.4553C50.6634 18.6771 49.7891 19.0984 48.9684 19.7193C48.1654 20.2959 47.4785 21.0721 46.9075 22.0478C46.3544 22.9792 45.9886 24.1545 45.8102 25.5738Z" fill="#FF3E19"/>
</svg>
